<?xml version="1.0" encoding="iso-8859-1"?>
<!-- Generator: Adobe Illustrator 16.0.0, SVG Export Plug-In . SVG Version: 6.00 Build 0)  -->
<!DOCTYPE svg PUBLIC "-//W3C//DTD SVG 1.1//EN" "http://www.w3.org/Graphics/SVG/1.1/DTD/svg11.dtd">
<svg version="1.1" id="Capa_1" xmlns="http://www.w3.org/2000/svg" xmlns:xlink="http://www.w3.org/1999/xlink" x="0px" y="0px"
	 width="28.75px" height="28.749px" viewBox="0 0 28.75 28.749" style="enable-background:new 0 0 28.75 28.749;"
	 xml:space="preserve">
<g>
	<path d="M23.35,21.06c0,0,0.91,1.519,1.795,3.888c0.788,2.109,0.507,4.062-1.403,3.773c-1.877-0.284,0.721-2.213,0.096-3.773
		c-0.909-2.275-2.152-3.279-2.291-3.259c-2.738,0.427-8.368,0.746-12.041-2.884C4.501,13.856,7.686,6.408,2.511,2.938
		c8.417-5.459,18.256-2.616,21.906,2.867C27.901,11.034,25.56,17,24.171,19.658c0,0-6.703-10.578-10.002-11.544
		C18.092,11.922,23.35,21.06,23.35,21.06z"/>
</g>
<g>
</g>
<g>
</g>
<g>
</g>
<g>
</g>
<g>
</g>
<g>
</g>
<g>
</g>
<g>
</g>
<g>
</g>
<g>
</g>
<g>
</g>
<g>
</g>
<g>
</g>
<g>
</g>
<g>
</g>
</svg>
